<svg id="Layer_1" data-name="Layer 1" xmlns="http://www.w3.org/2000/svg" viewBox="0 0 44.54 16.57"><title>ويب</title><path d="M32,21.94c1.37,0,2.7,0,4,0a2.83,2.83,0,0,0,2.65-1.82c.09-.23.19-.42.5-.17-.25.67-.48,1.36-.77,2a1.29,1.29,0,0,1-1.27.77c-2.27,0-4.54,0-6.81,0l-.13-.06V12.15a6,6,0,0,0-.09-1,1.09,1.09,0,0,0-1.17-1h-.48c-.13-.36,0-.39.29-.39h8c1.34,0,1.81.48,1.81,1.82v1.2l-.12.08c-.09-.09-.25-.18-.26-.28-.07-1.41-1.06-2-2.45-2H32v5.14h5.31v.78H32Z" transform="translate(-28.43 -6.37)"/><path d="M73,18.39h-6A3.59,3.59,0,0,0,68.52,22c1.23.57,2.55.11,3.8-1.35l.36.26a3.79,3.79,0,0,1-3.34,2.07,3.66,3.66,0,0,1-3.7-2,5.93,5.93,0,0,1,.07-5.72A4,4,0,0,1,71.46,14a2.92,2.92,0,0,1,1.19,1.84C72.82,16.61,72.86,17.46,73,18.39Zm-2-.82a5.15,5.15,0,0,0-.51-2.65,1.64,1.64,0,0,0-2.62-.41,4.18,4.18,0,0,0-1,3.06Z" transform="translate(-28.43 -6.37)"/><path d="M53.32,18.38H47.41A3.61,3.61,0,0,0,49,22c1.21.57,2.53.12,3.8-1.34l.37.25a3.81,3.81,0,0,1-3.35,2.07,3.66,3.66,0,0,1-3.7-2,6,6,0,0,1,.08-5.76,4,4,0,0,1,5.7-1.22,3.57,3.57,0,0,1,1.4,2.61C53.37,17.11,53.32,17.72,53.32,18.38Zm-6-.83h4.16A5.47,5.47,0,0,0,51,15a1.67,1.67,0,0,0-2.84-.23A4.58,4.58,0,0,0,47.35,17.55Z" transform="translate(-28.43 -6.37)"/><path d="M60,20l1.69-4c.28-.67.61-1.33.84-2,.16-.45.4-.62.85-.54.1,0,.21,0,.37,0L62.68,16q-1.41,3.3-2.83,6.62c-.07.15-.24.24-.37.37-.11-.13-.26-.23-.32-.37-1-2.24-1.9-4.48-2.86-6.71a12.49,12.49,0,0,0-.68-1.31,1.71,1.71,0,0,0-1.2-.86c-.09,0-.17-.14-.25-.22.09-.07.18-.18.28-.19a3.22,3.22,0,0,1,3.42,1.78c.62,1.24,1.11,2.54,1.66,3.82Z" transform="translate(-28.43 -6.37)"/><path d="M39.48,9.93c.1-.08.19-.23.29-.24.67,0,1.35,0,2,0A1.11,1.11,0,0,1,43,10.79a8.54,8.54,0,0,1,.1,1.34q0,5.14,0,10.3c0,.08,0,.17,0,.29H41.3v-.54c0-3.3,0-6.59,0-9.89a7.59,7.59,0,0,0-.07-1.07A1.16,1.16,0,0,0,40,10.06h-.36Z" transform="translate(-28.43 -6.37)"/><path d="M69.41,12.3a.9.9,0,0,1-1.13-.44c-.45-.69-1-1.34-1.5-2.08.61,0,1.14,0,1.67,0a.34.34,0,0,1,.24.2C68.94,10.75,69.17,11.51,69.41,12.3Z" transform="translate(-28.43 -6.37)"/><path d="M34.66,8.85a.89.89,0,0,1-1.12-.43c-.43-.66-.93-1.28-1.39-1.92,0,0,0,0,0-.13.54,0,1.07,0,1.6,0a.35.35,0,0,1,.24.19C34.2,7.32,34.43,8.07,34.66,8.85Z" transform="translate(-28.43 -6.37)"/></svg>